<svg height="512pt" viewBox="0 -90 512 512" width="512pt" xmlns="http://www.w3.org/2000/svg"><path d="m353.808594 50.535156c-27.773438-16.519531-62.8125-25.617187-98.65625-25.617187-34.386719 0-69.097656 9.148437-97.742188 25.757812l-11.628906 6.742188 13.210938 2.46875c39.097656 7.300781 73.390624 32.875 91.730468 68.410156l4.429688 8.582031 4.429687-8.582031c18.496094-35.835937 53.101563-61.472656 92.5625-68.574219l13.136719-2.363281zm0 0" fill="#fdbf00"/><path d="m353.808594 50.535156c-27.773438-16.519531-62.8125-25.617187-98.65625-25.617187v111.957031l4.429687-8.578125c18.496094-35.835937 53.101563-61.472656 92.5625-68.574219l13.136719-2.363281zm0 0" fill="#ff9100"/><path d="m512 52.683594-31.644531 50.355468c18.71875 23.183594 29.949219 52.644532 29.949219 84.699219 0 74.460938-60.585938 135.050781-135.050782 135.050781-38.492187 0-73.277344-16.195312-97.90625-42.121093l-22.195312 51.238281-22.195313-51.238281c-24.628906 25.925781-59.414062 42.121093-97.90625 42.121093-74.460937 0-135.050781-60.589843-135.050781-135.050781 0-32.890625 11.832031-63.070312 31.445312-86.523437l-30.5-48.53125h111.910157c35.0625-32.621094 88.90625-52.683594 142.296875-52.683594 55.65625 0 108.300781 19.59375 142.359375 52.683594zm-31.59375 135.054687c0-57.980469-47.175781-105.152343-105.152344-105.152343-57.976562 0-105.152344 47.171874-105.152344 105.152343 0 57.976563 47.175782 105.148438 105.152344 105.148438 57.976563 0 105.152344-47.171875 105.152344-105.148438zm-129.140625-132.921875c-26.761719-15.914062-60.589844-24.914062-96.113281-24.914062-33.917969 0-67.863282 9.207031-95.242188 25.085937 41.53125 7.753907 76.433594 34.585938 95.242188 71.023438 18.9375-36.6875 54.191406-63.648438 96.113281-71.195313zm-111.0625 132.921875c0-57.980469-47.175781-105.152343-105.152344-105.152343-57.976562 0-105.148437 47.171874-105.148437 105.152343 0 57.976563 47.171875 105.148438 105.148437 105.148438 57.976563 0 105.152344-47.171875 105.152344-105.148438zm0 0" fill="#444"/><path d="m375.253906 116.613281c39.210938 0 71.113282 31.902344 71.113282 71.125 0 39.207031-31.902344 71.113281-71.113282 71.113281-39.210937 0-71.113281-31.90625-71.113281-71.113281 0-39.222656 31.902344-71.125 71.113281-71.125zm41.214844 71.125c0-22.734375-18.488281-41.226562-41.214844-41.226562-22.722656 0-41.214844 18.492187-41.214844 41.226562 0 22.722657 18.492188 41.210938 41.214844 41.210938 22.726563 0 41.214844-18.488281 41.214844-41.210938zm0 0" fill="#444"/><path d="m375.960938 172.058594c8.640624 0 15.679687 7.035156 15.679687 15.679687 0 8.640625-7.039063 15.675781-15.679687 15.675781-8.640626 0-15.675782-7.035156-15.675782-15.675781 0-8.644531 7.035156-15.679687 15.675782-15.679687zm0 0" fill="#9bdd39"/><path d="m135.050781 116.613281c39.21875 0 71.113281 31.902344 71.113281 71.125 0 39.207031-31.894531 71.113281-71.113281 71.113281s-71.113281-31.90625-71.113281-71.113281c0-39.222656 31.894531-71.125 71.113281-71.125zm41.214844 71.125c0-22.734375-18.488281-41.226562-41.214844-41.226562-22.722656 0-41.210937 18.492187-41.210937 41.226562 0 22.722657 18.488281 41.210938 41.210937 41.210938 22.726563 0 41.214844-18.488281 41.214844-41.210938zm0 0" fill="#444"/><path d="m135.050781 172.058594c-8.640625 0-15.675781 7.035156-15.675781 15.675781 0 8.644531 7.035156 15.675781 15.675781 15.675781 8.644531 0 15.675781-7.03125 15.675781-15.675781 0-8.640625-7.03125-15.675781-15.675781-15.675781zm0 0" fill="#ff0059"/><path d="m375.253906 116.613281c39.210938 0 71.113282 31.902344 71.113282 71.125 0 39.207031-31.902344 71.113281-71.113282 71.113281-39.210937 0-71.113281-31.90625-71.113281-71.113281 0-39.222656 31.902344-71.125 71.113281-71.125zm41.214844 71.125c0-22.734375-18.488281-41.226562-41.214844-41.226562-22.722656 0-41.214844 18.492187-41.214844 41.226562 0 22.722657 18.492188 41.210938 41.214844 41.210938 22.726563 0 41.214844-18.488281 41.214844-41.210938zm0 0" fill="#292929"/><path d="m375.960938 172.058594c8.640624 0 15.679687 7.035156 15.679687 15.679687 0 8.640625-7.039063 15.675781-15.679687 15.675781-8.640626 0-15.675782-7.035156-15.675782-15.675781 0-8.644531 7.035156-15.679687 15.675782-15.679687zm0 0" fill="#93bf00"/><path d="m135.050781 116.613281c39.21875 0 71.113281 31.902344 71.113281 71.125 0 39.207031-31.894531 71.113281-71.113281 71.113281s-71.113281-31.90625-71.113281-71.113281c0-39.222656 31.894531-71.125 71.113281-71.125zm41.214844 71.125c0-22.734375-18.488281-41.226562-41.214844-41.226562-22.722656 0-41.210937 18.492187-41.210937 41.226562 0 22.722657 18.488281 41.210938 41.210937 41.210938 22.726563 0 41.214844-18.488281 41.214844-41.210938zm0 0" fill="#444"/><path d="m135.050781 172.058594c-8.640625 0-15.675781 7.035156-15.675781 15.675781 0 8.644531 7.035156 15.675781 15.675781 15.675781 8.644531 0 15.675781-7.03125 15.675781-15.675781 0-8.640625-7.03125-15.675781-15.675781-15.675781zm0 0" fill="#ff0059"/><path d="m512 52.683594h-114.488281c-34.058594-33.089844-86.703125-52.683594-142.359375-52.683594v29.902344c35.523437 0 69.351562 9 96.113281 24.914062-41.921875 7.546875-77.175781 34.507813-96.113281 71.195313v205.894531l22.195312-51.238281c24.628906 25.925781 59.414063 42.121093 97.90625 42.121093 74.464844 0 135.050782-60.589843 135.050782-135.050781 0-32.054687-11.230469-61.515625-29.949219-84.699219zm-31.59375 135.054687c0 57.976563-47.175781 105.148438-105.152344 105.148438-57.976562 0-105.152344-47.171875-105.152344-105.148438 0-57.980469 47.175782-105.152343 105.152344-105.152343 57.976563 0 105.152344 47.171874 105.152344 105.152343zm0 0" fill="#292929"/></svg>